<svg xmlns="http://www.w3.org/2000/svg" width="660" height="960" viewBox="0 0 660 960">
  <path fill="#FDC780" fill-rule="evenodd" d="M431.88459,876.948192 C472.76921,902.42672 468.089051,933.820199 445.91972,960 L307.495524,959.998619 C311.179014,947.882552 317.111652,935.33459 323.167154,924.326889 L324.123996,922.601918 C324.283537,922.316652 324.443085,922.032525 324.602602,921.749572 L325.559021,920.066236 C325.877496,919.510014 326.195536,918.958777 326.512831,918.412813 L327.462174,916.791027 C327.619922,916.523462 327.777407,916.257287 327.934589,915.992538 L328.873742,914.421445 L328.873742,914.421445 L329.803777,912.886302 L329.803777,912.886302 L330.722835,911.388835 L330.722835,911.388835 L331.629054,909.93077 C331.778918,909.691138 331.928169,909.45322 332.076768,909.217052 C353.827033,874.650357 397.147874,855.303672 431.88459,876.948192 Z M659.999,-0.0034991802 L659.999,908.982534 C624.512055,921.516305 586.706785,914.965702 537.937978,872.327892 C458.904064,803.204926 461.961769,716.914586 466.342062,644.87353 L466.939987,635.141022 C472.258557,548.396457 474.039471,485.265037 322.979866,503.820958 C119.80028,528.778998 -65.8881936,373.255172 127.161859,150.004033 C186.541532,81.3451037 273.837395,31.75909 361.257065,-0.0034991802 L659.999,-0.0034991802 Z M325.549142,593.10046 C381.234428,636.950446 422.777887,742.657077 379.117564,798.359287 C335.457242,854.058551 223.11644,838.659204 167.401752,794.809218 C111.716466,750.959231 101.95537,670.25923 145.615692,614.55702 C189.276015,558.857757 269.834454,549.250473 325.549142,593.10046 Z M69.5104609,496.871739 C88.1944315,511.295405 102.12727,546.068129 87.4846238,564.391055 C72.8305292,582.713982 35.1534781,577.648093 16.4695074,563.223302 C-2.21446322,548.799636 -5.48873749,522.252936 9.15390863,503.930009 C23.8080033,485.608207 50.8264902,482.448073 69.5104609,496.871739 Z"/>
</svg>
